<?xml version="1.0" encoding="utf-8"?>
<!-- Generator: Adobe Illustrator 27.2.0, SVG Export Plug-In . SVG Version: 6.00 Build 0)  -->
<svg version="1.1" id="Layer_1" xmlns="http://www.w3.org/2000/svg" xmlns:xlink="http://www.w3.org/1999/xlink" x="0px" y="0px"
	 viewBox="0 0 648 648" style="enable-background:new 0 0 648 648;" xml:space="preserve">
<style type="text/css">
	.st0{fill:#FFFFFF;}
	.st1{fill:#E8072B;}
	.st2{fill:#00408C;}
	.st3{fill:#061922;}
	.st4{fill:#DBE2E9;}
	.st5{fill:#FFF21F;}
</style>
<g>
	<g>
		<path class="st0" d="M123.37,194.25H62.71c-14.79,0-26.81,12.04-26.81,26.82v205.4c0,14.8,12.02,26.85,26.81,26.85h60.62
			c14.8,0,26.88-12.05,26.88-26.85v-205.4C150.21,206.28,138.16,194.25,123.37,194.25"/>
		<path class="st1" d="M108.33,241.74l0.06,0.88c1.85,1.08,2.79,1.96,4.65,3.16c4.95,3.11,11.04,8.65,10.27,27.72
			c1.38,4.16,2,12.33,3.28,14.95c2.58,5.1,4.3,8.43,5.05,13.25c0,0,0.74,7.51,1.71,8.05c5.12,1.15,3.64,1.66,4.39,2.53
			c0.79,1.03,3.75,0.98,3.75,3.73c1.03,1.37,1.78,2.8,2.36,4.28v-99.24c0-11.31-9.2-20.49-20.48-20.49h-19.6
			c3.15,1.11,4.93,2.44,5.96,4.53c2.53,0.22,5.54,5.89,0.85,14.27c2.08,1.38,0.46,3.45-1.03,5.85c-0.44,0.77-0.91,2.13-2.3,2.05
			c-1.78,3.74-3.93,7.37-5.55,7.6c-0.49,0.61-0.85,2.22-0.11,2.98C103.98,238.91,106.89,240.38,108.33,241.74"/>
		<path class="st1" d="M143.85,333.75c-2.66,6.75-9.28,11.51-17.01,11.51c-10.12,0-18.28-8.18-18.28-18.27
			c0-8.62,5.92-15.85,13.96-17.78c-2.11-5.27-6.55-13.82-7.88-16.62c-1.25-2.78-4.26-20.16-4.91-23.6c-0.15-0.75-7.88,4.49-7.9,4.82
			c-0.45,0.44-5.8,14.42-6.03,15.17c-0.11,0.47-0.12,2.34-0.12,2.34s2.63,0.32,4.15,4.92c1.5,4.59,6.07,21.33,6.07,21.33
			s-1.24,1.28-1.29,1.21c5.77,19.32,3.76,27.64,6.35,33.31c3.26,7.99,4.13,6.94,6.93,13.66c2,4.89,4.24,24.13,4.98,24.99
			c3.12,3.95,4.8,7.04,4.8,9.26c0,2.25-2.64,8.87-1.68,12.73c0.58,2.27,0.89,7.36,1.94,8.33c0,0,0.97,1.92,0.49,2.76
			c-0.14,0.29-0.41,0.74-0.29,1.08c1.72,6.07,7.27,16.42-1.72,21.84h0.19c9.81-1.52,17.24-9.93,17.24-20.26V333.75z"/>
		<path class="st2" d="M120.77,422.53c-3.29-2.94-1.09-4.18-1.22-5.34c-2.17-8.97-9.3-14.4-5.62-17.37
			c-0.91-2.96-2.76-6.68-2.69-6.68c-11.1-6.37-20.56-16.74-22.17-18.26c-1.95-2.12-5.27-4.25-5.89-5.96
			c-2.67-2.45-15.76-21.02-18.81-27.86l-5.31-0.75c-2.42-9.87-10.48-18.15-10.68-28.05c-0.08-3.74,1.69-11.76,2.35-13.36
			c0.65-1.62,3.74-4.29,3.74-4.29v-2.65c-11.59,0.33-8.26-0.85-10.26-5.36c-1.4-3.12-0.39-3.8,0.11-5.97
			c1.55-6.39,6.72-16.24,8.86-20.71c0.65-2.26,2.89-7.71,2.89-7.71c8.64-17.59,11.86-16.3,22.12-17.29l0.51-0.73
			c10.28-0.45,8.6-1.22,10.05-11.13c-1.5,0.64-1.94-3.1-1.94-3.1c-0.82-5.63,1.56-4.57,2.69-4.68c0.24-9.26,1.19-12.18,7.88-14.74
			H62.72c-11.33,0-20.51,9.18-20.51,20.51v205.4c0,11.33,9.19,20.52,20.52,20.52h60.64C116.43,443.23,120.53,436.09,120.77,422.53"
			/>
		<path class="st0" d="M74.2,434.08v-37.19h7.21c4.17,0,6.75,2.24,6.75,7.45v5.52c0,3.38-1.03,5.1-2.48,5.94
			c1.45,0.99,2.48,2.66,2.48,5.47v5.42c0,5.11-2.73,7.39-6.75,7.39H74.2z M79.15,417.93v11.46h1.91c1.7,0,2.16-0.89,2.16-2.66v-6.3
			c0-1.83-0.57-2.5-2.22-2.5H79.15z M79.15,401.58v12.29H81c1.75,0,2.22-0.63,2.22-2.66v-7.14c0-1.72-0.52-2.5-2.16-2.5H79.15z
			 M99.81,426.52h-4.48l-0.62,7.55h-5l4.48-37.19h7.11l4.33,37.19h-5.21L99.81,426.52z M97.59,401.06h-0.26
			c-0.31,4.48-0.93,12.35-1.13,14.84l-0.57,6.41h3.87l-0.57-6.41C98.73,413.35,98.01,405.59,97.59,401.06 M59.46,434.08h-4.33
			v-37.19h6.86l5.51,30.47c-0.47-7.29-1.08-16.09-1.08-23.59v-6.88h4.33v37.19h-6.29l-5.51-29.79c0.36,6.88,0.51,12.35,0.51,18.08
			V434.08z"/>
	</g>
	<g>
		<g>
			<path class="st3" d="M563.94,323.79H174.86v102.68c0,11.33,9.19,20.52,20.52,20.52H611.9v-75.24
				C611.9,345.26,590.43,323.79,563.94,323.79"/>
			<g>
				<path class="st0" d="M594.58,425.67h-28.99l-3.73,7.99h32.72c2.21,0,4-1.79,4-4C598.57,427.46,596.79,425.67,594.58,425.67"/>
				<path class="st4" d="M566.14,374.12l15.17,32.54c0.93,2,0.07,4.38-1.93,5.31c-0.55,0.26-1.12,0.38-1.69,0.38
					c-1.5,0-2.94-0.85-3.62-2.31l-7.94-17.02l-18.98,40.64H192.29c-2.21,0-4-1.79-4-4c0-2.21,1.79-4,4-4h349.78L566.14,374.12"/>
				<polygon class="st0" points="512.93,337.11 540.8,396.89 533.59,412.35 458.26,412.35 475.56,375.29 485.33,396.23 				"/>
				<path class="st4" d="M498.23,337.11l-13.53,28.98h-19.54l-21.58,46.26h-51.21c-4.52-13.98,3.07-29.02,17.04-33.66
					c2.8-0.93,5.65-1.37,8.45-1.37c10.63,0,20.58,6.38,24.77,16.6l26.48-56.8H498.23z"/>
				<path class="st5" d="M548.16,381.15l-20.53-44.03h36.32c19.1,0,34.63,15.54,34.63,34.63v40.41l-32.43-69.54L548.16,381.15z
					 M405.21,366.05c4.1-1.36,8.36-2.05,12.65-2.05c7.69,0,14.99,2.16,21.21,6.03l15.34-32.91h-63.36v37.18
					C395.04,370.69,399.81,367.84,405.21,366.05"/>
				<path class="st0" d="M288.5,412.35l4.03-16.97h18.67l4.14,16.97h13.19l-18.81-75.24h-15.6l-18.81,75.24H288.5z M301.91,356.91
					l6.09,25.3h-12.27L301.91,356.91z M377.74,337.11v75.24h-13.16v-31.62h-17.09v31.62h-13.15v-75.24h13.15v30.46h17.09v-30.46
					H377.74z M252.71,350.27h-14.33v-13.15h41.82v13.15h-14.33v62.08h-13.16V350.27z M192.9,408.38c-3.04-3.04-4.72-7.19-4.72-11.68
					v-59.58h13.15v62.87h17.96v-62.87h13.14v59.58c0,4.49-1.67,8.64-4.72,11.68c-3.04,3.04-7.19,4.72-11.68,4.72h-11.46
					C200.09,413.1,195.95,411.42,192.9,408.38"/>
			</g>
		</g>
		<g>
			<polygon class="st5" points="285.39,242.03 288.49,251.56 298.51,251.56 290.41,257.45 293.5,266.98 285.39,261.09 
				277.28,266.98 280.38,257.45 272.27,251.56 282.3,251.56 			"/>
			<path class="st0" d="M199.77,288.5h-8.96l-1.22,21.41h-14.73l10.48-108.44h20.81l10.33,108.44h-15.34L199.77,288.5z
				 M191.57,274.98h7.44l-1.06-17.62c-0.61-8.2-2.13-34.62-2.89-47.68c-0.91,13.06-1.97,39.94-2.43,47.68L191.57,274.98z"/>
			<polygon class="st0" points="246.84,309.91 220.26,309.91 220.26,201.48 234.84,201.48 234.84,296.24 246.84,296.24 			"/>
			<polygon class="st0" points="277.97,309.91 251.39,309.91 251.39,201.48 265.97,201.48 265.97,296.24 277.97,296.24 			"/>
			<path class="st0" d="M335.59,288.65c0,16.1-8.05,22.17-18.53,22.17c-12.61,0-18.99-6.38-18.99-21.26v-15.19h14.58v16.25
				c0,5.16,1.82,6.53,4.25,6.53c3.19,0,4.1-3.19,4.1-8.05v-4.1c0-7.9-1.97-10.33-10.78-23.69c-7.44-11.54-11.54-21.56-11.54-32.35
				v-4.4c0-16.1,6.68-23.99,18.68-23.99c10.48,0,18.38,3.34,18.38,23.99v13.67h-14.28v-15.04c0-5.92-1.06-8.96-4.1-8.96
				c-3.19,0-4.4,2.28-4.4,8.96v2.89c0,9.41,2.73,14.88,10.17,26.12c7.75,12,12.45,19.14,12.45,31.44V288.65z"/>
			<polygon class="st0" points="339.18,201.48 376.39,201.48 376.39,215.15 365,215.15 365,309.91 350.42,309.91 350.42,215.15 
				339.18,215.15 			"/>
			<path class="st0" d="M399.24,288.5h-8.96l-1.21,21.41h-14.73l10.48-108.44h20.81l10.33,108.44h-15.34L399.24,288.5z
				 M391.04,274.98h7.44l-1.06-17.62c-0.61-8.2-2.13-34.62-2.89-47.68c-0.91,13.06-1.97,39.94-2.43,47.68L391.04,274.98z"/>
			<path class="st0" d="M437.08,273.16h-2.58v36.75h-14.58V201.48h18.07c12.3,0,19.44,6.83,19.44,21.87v27.95
				c0,11.08-3.95,17.77-11.08,20.5c3.8,1.37,5.46,5.31,6.99,12.45c1.06,4.25,4.86,25.66,4.86,25.66H443L437.08,273.16z
				 M434.49,215.15v45.41h2.43c4.71,0,5.93-2.58,5.93-7.75v-29.91c0-5.16-1.22-7.75-5.93-7.75H434.49z"/>
			<path class="st0" d="M500.53,309.72H471.9v-10.1c0-17.18,5.57-24.11,13.41-38.13c4.82-8.89,7.24-16.58,7.24-26.83v-15.22
				c0-7.69-1.81-10.85-6.33-10.85c-5.27,0-6.33,3.17-6.33,10.85v18.69h-7.99V221.1c0-14.62,4.67-19.89,14.32-19.89
				c8.89,0,14.32,5.27,14.32,19.89v11.6c0,11.6-3.02,20.8-8.74,31.2c-7.99,14.47-12.81,21.7-12.81,35.87v1.96h21.55V309.72z"/>
			<path class="st0" d="M538.66,221.1v69.63c0,14.62-5.43,19.89-14.32,19.89c-9.65,0-14.32-5.27-14.32-19.89V221.1
				c0-14.62,5.43-19.89,14.32-19.89C533.83,201.21,538.66,206.48,538.66,221.1 M530.67,219.44c0-7.69-1.05-10.85-6.33-10.85
				c-4.52,0-6.33,3.17-6.33,10.85v72.94c0,7.69,1.06,10.85,6.33,10.85c4.52,0,6.33-3.17,6.33-10.85V219.44z"/>
			<path class="st0" d="M576.78,309.72h-28.63v-10.1c0-17.18,5.57-24.11,13.41-38.13c4.82-8.89,7.24-16.58,7.24-26.83v-15.22
				c0-7.69-1.81-10.85-6.33-10.85c-5.28,0-6.33,3.17-6.33,10.85v18.69h-7.99V221.1c0-14.62,4.67-19.89,14.32-19.89
				c8.89,0,14.32,5.27,14.32,19.89v11.6c0,11.6-3.02,20.8-8.74,31.2c-7.99,14.47-12.81,21.7-12.81,35.87v1.96h21.55V309.72z"/>
			<path class="st0" d="M597.58,310.62c-9.64,0-14.32-5.27-14.32-19.89V273.7h7.99v18.69c0,7.69,1.06,10.85,6.33,10.85
				c4.52,0,6.33-3.16,6.33-10.85V262.7c0-6.63-3.16-8.74-7.23-8.74c-3.77,0-6.03,2.11-7.08,4.22l-5.28-1.96l19.14-46.12h-19.29
				v-7.99h27.28v6.93l-17.18,38.13c1.36-0.45,3.01-0.75,5.12-0.75c6.48,0,12.51,4.52,12.51,16.88v27.43
				C611.9,305.35,606.47,310.62,597.58,310.62"/>
		</g>
	</g>
</g>
</svg>
