<svg width="30" height="30" viewBox="0 0 30 30" fill="none" xmlns="http://www.w3.org/2000/svg">
<g clip-path="url(#clip0_827_3686)">
<mask id="path-1-inside-1_827_3686" fill="white">
<path fill-rule="evenodd" clip-rule="evenodd" d="M12.8492 25.8198C14.0208 26.9914 15.9203 26.9914 17.0919 25.8198L25.5772 17.3345L26.6378 16.2739C29.5668 13.3449 29.5668 8.59619 26.6378 5.66726C23.7089 2.73833 18.9602 2.73833 16.0312 5.66726L14.9706 6.72792L13.9099 5.66726C10.981 2.73833 6.23223 2.73833 3.3033 5.66726C0.374369 8.59619 0.374369 13.3449 3.3033 16.2739L4.36396 17.3345L12.8492 25.8198Z"/>
</mask>
<path d="M14.9706 6.72792L13.5563 8.14213L14.9706 9.55635L16.3848 8.14213L14.9706 6.72792ZM15.6777 24.4056C15.2871 24.7961 14.654 24.7961 14.2635 24.4056L11.435 27.234C13.3877 29.1866 16.5535 29.1866 18.5061 27.234L15.6777 24.4056ZM24.163 15.9203L15.6777 24.4056L18.5061 27.234L26.9914 18.7487L24.163 15.9203ZM25.2236 14.8596L24.163 15.9203L26.9914 18.7487L28.052 17.6881L25.2236 14.8596ZM25.2236 7.08147C27.3715 9.22936 27.3715 12.7118 25.2236 14.8596L28.052 17.6881C31.762 13.9781 31.762 7.96303 28.052 4.25305L25.2236 7.08147ZM17.4454 7.08147C19.5933 4.93359 23.0757 4.93359 25.2236 7.08147L28.052 4.25305C24.3421 0.543067 18.327 0.543066 14.617 4.25305L17.4454 7.08147ZM16.3848 8.14213L17.4454 7.08147L14.617 4.25305L13.5563 5.31371L16.3848 8.14213ZM12.4957 7.08147L13.5563 8.14213L16.3848 5.31371L15.3241 4.25305L12.4957 7.08147ZM4.71751 7.08147C6.8654 4.93359 10.3478 4.93359 12.4957 7.08147L15.3241 4.25305C11.6141 0.543067 5.59907 0.543067 1.88909 4.25305L4.71751 7.08147ZM4.71751 14.8596C2.56963 12.7118 2.56963 9.22936 4.71751 7.08147L1.88909 4.25305C-1.82089 7.96303 -1.82089 13.9781 1.88909 17.6881L4.71751 14.8596ZM5.77817 15.9203L4.71751 14.8596L1.88909 17.6881L2.94975 18.7487L5.77817 15.9203ZM14.2635 24.4056L5.77817 15.9203L2.94975 18.7487L11.435 27.234L14.2635 24.4056Z" fill="white" mask="url(#path-1-inside-1_827_3686)"/>
</g>
<defs>
<clipPath id="clip0_827_3686">
<rect width="30" height="30" fill="white"/>
</clipPath>
</defs>
</svg>
