<svg width="30" height="30" viewBox="0 0 30 30" fill="none" xmlns="http://www.w3.org/2000/svg">
<path fill-rule="evenodd" clip-rule="evenodd" d="M25 15C25 20.5228 20.5228 25 15 25C12.5983 25 10.3943 24.1533 8.67028 22.7421C8.68278 22.7308 8.69506 22.7192 8.70711 22.7071L22.7071 8.70711C22.7192 8.69506 22.7308 8.68278 22.7421 8.67028C24.1533 10.3943 25 12.5983 25 15ZM7.25786 21.3297C7.26917 21.3172 7.28084 21.3049 7.29289 21.2929L21.2929 7.29289C21.3049 7.28084 21.3172 7.26917 21.3297 7.25786C19.6057 5.84669 17.4017 5 15 5C9.47715 5 5 9.47715 5 15C5 17.4017 5.84669 19.6057 7.25786 21.3297ZM27 15C27 21.6274 21.6274 27 15 27C8.37258 27 3 21.6274 3 15C3 8.37258 8.37258 3 15 3C21.6274 3 27 8.37258 27 15Z" fill="white"/>
</svg>
