<svg xmlns="http://www.w3.org/2000/svg" width="30" height="30" viewBox="0 0 30 30" fill="black">
<path d="M14.5172 7.63947C14.65 7.14614 15.35 7.14613 15.4828 7.63948L16.5676 11.6684C16.7992 12.5287 17.4713 13.2008 18.3316 13.4324L22.3605 14.5172C22.8539 14.65 22.8539 15.35 22.3605 15.4828L18.3316 16.5676C17.4713 16.7992 16.7992 17.4713 16.5676 18.3316L15.4828 22.3605C15.35 22.8539 14.65 22.8539 14.5172 22.3605L13.4324 18.3316C13.2008 17.4713 12.5287 16.7992 11.6684 16.5676L7.63947 15.4828C7.14614 15.35 7.14613 14.65 7.63948 14.5172L11.6684 13.4324C12.5287 13.2008 13.2008 12.5287 13.4324 11.6684L14.5172 7.63947Z" stroke="black" stroke-width="1"/>
</svg>